<svg width="501" height="500" viewBox="0 0 501 500" fill="none" xmlns="http://www.w3.org/2000/svg">
<path d="M216.8 167.075H216.818C217.08 167.1 217.343 167.09 217.605 167.103V166.883C217.341 166.965 217.072 167.029 216.8 167.075Z" fill="#D1A9FF"/>
<path d="M281.068 145.655C280.688 140.145 279.658 134.699 278 129.43C276.834 125.259 275.129 121.258 272.93 117.528C272.562 116.937 272.156 116.371 271.715 115.833C270.725 114.469 269.357 113.426 267.78 112.833C266.038 112.44 264.252 112.28 262.468 112.355C258.543 112.225 254.618 112.036 250.695 111.788C242.8 111.288 234.925 110.549 227.07 109.573C222.603 109.016 218.148 108.381 213.703 107.668C213.566 107.65 213.428 107.663 213.298 107.705C214.999 107.75 216.614 108.46 217.798 109.683L217.83 109.723C219.304 111.761 220.274 114.12 220.663 116.605C222.02 122.502 222.983 128.483 223.545 134.508C223.855 137.508 224.105 140.528 224.34 143.543C224.548 146.205 224.793 148.873 224.808 151.543C224.835 156.273 224.058 161.543 220.558 165.043C219.733 165.883 218.719 166.514 217.6 166.88V167.1C218.01 167.118 218.418 167.15 218.825 167.143C221.022 167.092 223.197 166.698 225.273 165.975C230.762 164.055 235.297 160.086 237.928 154.9C240.461 149.603 241.744 143.796 241.678 137.925C241.392 135.551 241.956 133.153 243.268 131.155C243.601 130.75 244.028 130.434 244.511 130.232C244.995 130.031 245.521 129.951 246.043 130C246.724 130.123 247.371 130.392 247.94 130.788C248.508 131.183 248.985 131.696 249.338 132.293C251.939 136.344 253.411 141.017 253.603 145.828C253.972 143.306 254.05 140.75 253.835 138.21C253.598 135.555 252.148 131.753 254.295 129.513C256.443 127.273 259.578 129.013 261.31 130.825C262.358 132.013 263.235 133.341 263.918 134.77C264.712 136.287 265.403 137.855 265.985 139.465C266.043 139.628 266.085 139.793 266.143 139.965L265.87 134.938C265.58 133.346 265.915 131.704 266.805 130.353C268.055 128.95 269.78 129.718 270.94 130.788C271.962 131.765 272.907 132.821 273.765 133.945C277.377 138.716 279.403 144.498 279.558 150.48C279.573 151.173 279.558 151.865 279.528 152.558C279.438 154.503 279.183 156.45 278.923 158.37C278.739 159.708 278.527 161.041 278.288 162.37C278.538 161.913 278.763 161.448 278.968 160.973C280.855 156.101 281.574 150.855 281.068 145.655Z" fill="#D1A9FF"/>
<path d="M208.133 137.25L208.173 137.338C208.206 137.405 208.225 137.479 208.23 137.554C208.234 137.629 208.224 137.704 208.199 137.775C208.175 137.846 208.136 137.912 208.086 137.968C208.036 138.024 207.975 138.07 207.908 138.103C207.877 138.118 207.845 138.13 207.813 138.14C207.711 138.207 207.594 138.247 207.473 138.258C206.243 138.355 205.01 138.418 203.78 138.465C203.832 139.78 203.929 141.094 204.073 142.408C204.288 144.408 204.59 146.423 204.975 148.408C205.343 147.733 205.708 147.058 206.063 146.385C207.156 144.303 208.258 142.224 209.368 140.148C209.368 140.133 209.388 140.128 209.395 140.115L209.42 140.085C209.493 139.968 209.604 139.878 209.734 139.831C209.864 139.783 210.006 139.78 210.138 139.823C210.237 139.838 210.332 139.875 210.416 139.931C210.5 139.987 210.57 140.061 210.623 140.148C213.453 144.468 216.253 148.808 219.145 153.085C219.207 153.196 219.24 153.321 219.239 153.448C219.239 153.575 219.205 153.7 219.142 153.811C219.079 153.921 218.988 154.013 218.879 154.078C218.769 154.143 218.645 154.178 218.518 154.18L216.578 154.265L206.533 154.715C207.206 157.425 208.394 159.981 210.033 162.243C211.333 164.039 213.263 165.277 215.438 165.71C216.591 165.694 217.716 165.358 218.69 164.74C219.664 164.122 220.447 163.246 220.953 162.21C223.072 158.09 223.873 153.418 223.245 148.828C222.995 144.373 222.61 139.915 222.15 135.47C222.081 135.562 221.993 135.639 221.891 135.693C221.79 135.748 221.678 135.78 221.563 135.788C218.623 135.813 215.688 136.14 212.75 135.903C212.556 135.895 212.373 135.812 212.239 135.673C212.105 135.533 212.03 135.346 212.03 135.153C212.033 135.032 212.064 134.913 212.123 134.808C214.58 130.558 217.038 126.338 219.18 121.925C219.237 121.789 219.342 121.678 219.475 121.614C219.609 121.551 219.761 121.539 219.903 121.58C220.018 121.583 220.13 121.617 220.228 121.68C219.876 119.813 219.472 117.955 219.018 116.11C218.741 113.866 217.73 111.775 216.143 110.165C215.442 109.609 214.598 109.262 213.709 109.163C212.82 109.064 211.921 109.217 211.115 109.605C210.491 110.144 209.929 110.751 209.438 111.413C207.375 114.572 206.018 118.14 205.46 121.873C204.918 124.565 204.573 127.285 204.263 130.01C205.748 132.262 207.022 134.646 208.068 137.133C208.094 137.169 208.116 137.208 208.133 137.25Z" fill="#292827"/>
<path d="M204.073 142.395C203.931 141.083 203.834 139.769 203.78 138.453C203.295 138.473 202.808 138.49 202.323 138.503C202.366 139.468 202.431 140.431 202.518 141.393C202.794 144.424 203.257 147.436 203.905 150.41C204.255 149.735 204.612 149.068 204.975 148.41C204.59 146.41 204.288 144.405 204.073 142.395Z" fill="white"/>
<path d="M208.173 137.325L208.133 137.238C208.119 137.195 208.101 137.153 208.078 137.115C207.031 134.631 205.758 132.249 204.273 130C203.873 129.39 203.456 128.788 203.023 128.195C202.6 127.615 202.18 127.03 201.725 126.468C201.587 126.33 201.401 126.253 201.206 126.253C201.012 126.253 200.825 126.33 200.688 126.468C200.647 126.507 200.613 126.553 200.585 126.603C198.425 130.109 196.489 133.749 194.79 137.5C194.743 137.584 194.713 137.677 194.701 137.773C194.69 137.869 194.698 137.966 194.724 138.059C194.751 138.152 194.795 138.239 194.856 138.315C194.916 138.39 194.99 138.453 195.075 138.5C195.18 138.558 195.298 138.59 195.418 138.593C197.72 138.593 200.023 138.58 202.323 138.515C202.808 138.5 203.295 138.485 203.78 138.465C205.01 138.418 206.243 138.355 207.473 138.258C207.594 138.247 207.711 138.207 207.813 138.14C207.959 138.099 208.083 138.001 208.157 137.868C208.232 137.736 208.251 137.579 208.21 137.433C208.201 137.396 208.188 137.36 208.173 137.325ZM203.795 124.09C203.755 123.983 203.7 123.883 203.658 123.775C202.212 120.577 200.567 117.472 198.733 114.48C198.633 114.315 198.472 114.195 198.284 114.148C198.097 114.102 197.898 114.131 197.733 114.23C197.63 114.292 197.545 114.378 197.483 114.48C195.994 117.831 194.438 121.153 192.818 124.443C192.757 124.553 192.725 124.678 192.726 124.805C192.728 124.931 192.761 125.055 192.824 125.165C192.887 125.275 192.978 125.367 193.086 125.431C193.195 125.496 193.319 125.532 193.445 125.535C196.73 125.285 200.028 125.478 203.293 124.985C203.353 124.972 203.411 124.95 203.465 124.92C203.596 124.871 203.702 124.773 203.763 124.648C203.813 124.564 203.842 124.47 203.847 124.373C203.853 124.276 203.835 124.179 203.795 124.09ZM219.145 153.075C216.253 148.798 213.453 144.458 210.623 140.138C210.57 140.051 210.5 139.977 210.416 139.921C210.332 139.865 210.237 139.828 210.138 139.813C210.006 139.77 209.864 139.773 209.734 139.821C209.604 139.868 209.493 139.958 209.42 140.075L209.395 140.105C209.395 140.105 209.375 140.123 209.368 140.138C208.258 142.213 207.156 144.292 206.063 146.375C205.708 147.048 205.343 147.723 204.975 148.398C204.608 149.073 204.258 149.735 203.905 150.398C203.295 151.545 202.746 152.724 202.26 153.93C202.235 154.023 202.228 154.119 202.24 154.215C202.252 154.31 202.283 154.402 202.331 154.485C202.379 154.568 202.443 154.641 202.519 154.699C202.595 154.758 202.682 154.8 202.775 154.825C202.835 154.842 202.897 154.851 202.96 154.85L205.023 154.76L206.523 154.693L216.568 154.243L218.508 154.158C218.604 154.156 218.699 154.135 218.788 154.097C218.877 154.058 218.957 154.002 219.024 153.932C219.091 153.863 219.143 153.78 219.178 153.69C219.213 153.6 219.23 153.504 219.228 153.408C219.227 153.292 219.199 153.178 219.145 153.075ZM220.518 122.083C220.505 121.998 220.474 121.917 220.428 121.844C220.382 121.772 220.321 121.71 220.25 121.663C220.152 121.6 220.039 121.565 219.923 121.563C219.781 121.521 219.629 121.533 219.496 121.597C219.364 121.661 219.259 121.771 219.203 121.908C217.06 126.32 214.603 130.55 212.145 134.79C212.054 134.961 212.033 135.161 212.086 135.347C212.139 135.534 212.262 135.693 212.43 135.79C212.535 135.848 212.653 135.88 212.773 135.883C215.71 136.12 218.645 135.793 221.585 135.768C221.7 135.76 221.812 135.728 221.914 135.673C222.015 135.619 222.103 135.542 222.173 135.45C222.222 135.395 222.26 135.33 222.283 135.259C222.307 135.189 222.316 135.114 222.31 135.04C221.75 130.713 221.38 126.365 220.518 122.083Z" fill="#AC47F5"/>
<path d="M182.368 74.94C181.732 72.8724 180.319 71.1318 178.427 70.0838C176.535 69.0357 174.31 68.762 172.22 69.32C173.59 65.7381 174.011 61.8627 173.443 58.07C173.077 56.5027 172.401 55.0249 171.453 53.7244C170.505 52.4239 169.305 51.3274 167.925 50.5C165.177 48.8481 162.026 47.9889 158.82 48.0175C155.204 48.1197 151.664 49.0885 148.5 50.8425C144.749 52.9393 141.23 55.4255 138 58.26C137.345 56.9166 136.423 55.7211 135.29 54.747C134.157 53.7728 132.836 53.0405 131.41 52.595C127.805 51.4624 123.907 51.7202 120.483 53.3175C116.696 55.1317 113.241 57.5699 110.263 60.53C107.571 63.01 105.003 65.6184 102.56 68.355C92.0275 80.1325 83.2325 94.605 81.075 110.5C80.3924 115.538 80.4851 120.65 81.35 125.66C81.8123 125.569 82.2799 125.508 82.75 125.478C83.3946 125.427 84.0427 125.438 84.685 125.513C86.6125 125.84 88.4588 126.536 90.1225 127.563C90.165 126.718 90.225 125.878 90.3225 125.038C91.6513 115.036 96.0049 105.679 102.8 98.22C109.305 90.6334 117.449 84.6253 126.618 80.65C130.355 79.142 134.251 78.0578 138.23 77.4175C142.377 76.6779 146.589 76.3596 150.8 76.4675C154.545 76.4159 158.249 77.2413 161.618 78.8775C165.669 81.3947 169.075 84.8243 171.565 88.8925C172.565 90.38 173.46 91.9275 174.315 93.4975C174.618 94.0475 174.92 94.5975 175.208 95.155C175.793 93.6775 176.458 92.2325 177.168 90.8075C179.078 87.384 180.685 83.8005 181.973 80.0975C182.541 78.44 182.677 76.6648 182.368 74.94Z" fill="#292827"/>
<path d="M109.79 161.38C102.89 158.299 97.299 152.883 94.0001 146.085C93.8576 146.39 93.6851 146.68 93.5176 146.972C92.7706 151.15 92.1868 155.355 91.7676 159.577C91.5176 162.062 91.3001 164.55 91.0826 167.037C90.7052 169.52 90.8975 172.055 91.6451 174.452C92.6236 176.768 94.1716 178.798 96.1451 180.355C98.0699 182.096 100.128 183.684 102.3 185.105C106.655 187.977 111.61 189.815 116.785 190.477C122.37 191.115 128.019 190.888 133.535 189.805C136.219 189.293 138.88 188.67 141.513 187.937C143.933 187.449 146.262 186.587 148.418 185.382C149.833 184.436 151.045 183.215 151.981 181.794C152.918 180.372 153.561 178.777 153.873 177.102L155.123 171.04L157.348 160.31C150.079 163.374 142.313 165.089 134.43 165.37C126.023 165.867 117.61 164.505 109.79 161.38Z" fill="#FFE497"/>
<path d="M89.5651 172C89.8648 174.295 90.746 176.476 92.1251 178.335C93.8131 180.365 95.751 182.174 97.8926 183.718C101.952 187.03 106.634 189.495 111.663 190.968C122.773 193.968 134.608 191.535 145.37 188.325C147.734 187.617 149.875 186.311 151.585 184.533C152.976 183.097 154.045 181.382 154.72 179.5C155.255 177.718 155.672 175.904 155.97 174.068L158.97 159.568C158.498 159.785 158.028 160.013 157.553 160.218L157.335 160.303C156.595 163.881 155.853 167.458 155.11 171.033L153.86 177.095C153.549 178.769 152.906 180.364 151.969 181.786C151.032 183.208 149.821 184.428 148.405 185.375C146.25 186.579 143.92 187.441 141.5 187.93C138.868 188.662 136.206 189.285 133.523 189.798C128.007 190.881 122.357 191.107 116.773 190.47C111.598 189.808 106.644 187.97 102.29 185.098C100.116 183.678 98.0572 182.09 96.1326 180.348C94.1591 178.791 92.6112 176.76 91.6326 174.445C90.8851 172.048 90.6927 169.512 91.0701 167.03C91.2876 164.53 91.5051 162.055 91.7551 159.57C92.1826 155.345 92.7551 151.143 93.5051 146.965C92.9644 147.909 92.3241 148.793 91.5951 149.6C91.2362 151.788 90.9261 153.983 90.6651 156.185C90.3726 158.685 90.1326 161.185 89.9151 163.673C89.6103 165.953 89.4525 168.251 89.4426 170.553C89.4576 170.885 89.4426 171.22 89.4876 171.553C89.5001 171.708 89.5426 171.855 89.5651 172Z" fill="#292827"/>
<path d="M178.8 136.22L178.735 136.2C178.677 136.186 178.621 136.165 178.568 136.138C178.407 136.064 178.281 135.93 178.219 135.764C178.156 135.598 178.162 135.414 178.235 135.253C178.257 135.151 178.304 135.057 178.37 134.978C179.55 133 180.692 130.999 181.795 128.978C181.905 126.83 181.865 124.677 181.675 122.535H173.25C173.153 122.534 173.058 122.513 172.969 122.475C172.88 122.436 172.799 122.381 172.732 122.311C172.664 122.241 172.611 122.159 172.576 122.069C172.54 121.978 172.523 121.882 172.525 121.785C172.526 121.724 172.534 121.664 172.55 121.605C173.893 118.118 175.51 114.745 176.855 111.26C176.897 111.126 176.977 111.006 177.084 110.915C177.192 110.824 177.323 110.766 177.463 110.748C177.603 110.73 177.745 110.752 177.872 110.811C178 110.871 178.107 110.966 178.183 111.085C179.033 112.618 179.86 114.163 180.698 115.7C180.675 115.583 180.66 115.463 180.635 115.343C179.613 110.162 178.049 105.103 175.968 100.25C174.063 95.6114 171.582 91.2311 168.583 87.2126C166.146 83.6708 162.751 80.896 158.795 79.2126C155.148 78.1081 151.331 77.6695 147.528 77.9176C139.307 78.0575 131.213 79.9675 123.798 83.5176C115.165 87.9197 107.611 94.1725 101.673 101.83C95.4943 109.498 91.9354 118.944 91.5177 128.783C91.5158 128.879 91.4948 128.974 91.4561 129.063C91.4173 129.151 91.3615 129.231 91.2919 129.298C91.2222 129.365 91.1401 129.417 91.0502 129.452C90.9602 129.488 90.8643 129.505 90.7677 129.503C90.6462 129.5 90.5271 129.468 90.4202 129.41C88.5075 128.08 86.308 127.219 84.0002 126.898C82.0544 126.801 80.1234 127.282 78.4502 128.28C71.4152 132.36 71.4027 141.83 75.6477 147.963C77.7127 150.945 81.3627 153.598 85.1477 152.485C86.9771 151.836 88.6145 150.738 89.9102 149.293C91.439 147.872 92.5756 146.081 93.2102 144.093C93.3652 143.535 94.2752 143.328 94.5402 143.92C96.2623 147.852 98.7303 151.413 101.808 154.405C105.173 157.551 109.203 159.899 113.6 161.275C121.209 163.628 129.206 164.469 137.138 163.75C144.778 163.175 152.245 161.19 159.163 157.898C162.653 156.226 165.958 154.189 169.02 151.823C172.226 149.436 175.04 146.563 177.358 143.308C178.79 141.174 179.88 138.83 180.588 136.36C180.025 136.325 179.463 136.303 178.903 136.25C178.868 136.243 178.833 136.233 178.8 136.22ZM85.4002 140.25C83.9199 140.396 82.4904 140.869 81.2152 141.635C81.0508 141.714 80.8625 141.729 80.6878 141.676C80.5131 141.623 80.3647 141.506 80.2722 141.349C80.1796 141.191 80.1496 141.005 80.1882 140.826C80.2267 140.648 80.331 140.49 80.4802 140.385C81.982 139.498 83.6629 138.957 85.4002 138.803C86.3327 138.713 86.3227 140.168 85.4002 140.255V140.25ZM112.865 109.415C109.453 110.591 106.632 113.048 105 116.268C104.573 117.103 103.32 116.365 103.75 115.535C105.58 111.987 108.718 109.29 112.5 108.013C113.368 107.71 113.75 109.115 112.865 109.415ZM115.915 126.865C115.915 127.058 115.839 127.243 115.702 127.379C115.566 127.516 115.381 127.593 115.188 127.593C114.995 127.593 114.81 127.516 114.673 127.379C114.537 127.243 114.46 127.058 114.46 126.865V121.818C114.46 121.625 114.537 121.44 114.673 121.303C114.81 121.167 114.995 121.09 115.188 121.09C115.381 121.09 115.566 121.167 115.702 121.303C115.839 121.44 115.915 121.625 115.915 121.818V126.865ZM157.3 125.035V125.053C156.535 128.497 155.293 131.819 153.61 134.92C152.178 137.683 149.999 139.989 147.32 141.574C144.642 143.158 141.572 143.958 138.46 143.883C132 143.403 126.625 138.815 122.75 133.955C122.65 133.852 122.583 133.722 122.556 133.581C122.529 133.44 122.544 133.294 122.599 133.161C122.653 133.029 122.745 132.915 122.864 132.834C122.982 132.753 123.122 132.708 123.265 132.705C134.778 132.743 146.109 129.833 156.178 124.25C156.253 124.199 156.338 124.165 156.428 124.15C156.554 124.12 156.686 124.127 156.808 124.172C156.93 124.216 157.036 124.296 157.113 124.4C157.248 124.581 157.311 124.805 157.29 125.03L157.3 125.035ZM154.405 97.1501C153.58 97.5926 152.848 96.3376 153.673 95.9001C154.841 95.263 156.129 94.8755 157.455 94.7618C158.781 94.6482 160.116 94.8111 161.375 95.2401C162.258 95.5426 161.875 96.9451 160.99 96.6401C159.917 96.2637 158.777 96.1152 157.643 96.2038C156.51 96.2925 155.407 96.6165 154.405 97.1551V97.1501ZM162.803 116.078C162.983 116.993 161.58 117.383 161.4 116.465C161.039 114.618 160.675 112.773 160.31 110.928C160.13 110.01 161.533 109.623 161.713 110.54L162.803 116.078ZM160.57 136.405C159.95 137.11 158.925 136.078 159.543 135.378C160.859 133.842 161.67 131.938 161.866 129.926C162.063 127.913 161.635 125.889 160.64 124.128C160.561 123.963 160.546 123.775 160.599 123.6C160.653 123.425 160.769 123.277 160.927 123.184C161.084 123.092 161.271 123.062 161.449 123.1C161.628 123.139 161.785 123.243 161.89 123.393C163.041 125.433 163.532 127.78 163.294 130.11C163.057 132.441 162.104 134.641 160.565 136.408L160.57 136.405ZM166.475 138.93C166.063 139.77 164.808 139.033 165.225 138.198C166.475 135.622 167.105 132.79 167.064 129.928C167.023 127.066 166.312 124.253 164.988 121.715C164.55 120.888 165.808 120.155 166.238 120.983C167.684 123.745 168.458 126.81 168.5 129.928C168.541 133.046 167.847 136.13 166.475 138.93Z" fill="#FFE497"/>
<path d="M94.0001 146.085C97.3003 152.884 102.894 158.3 109.795 161.38C117.614 164.501 126.024 165.861 134.428 165.363C142.311 165.082 150.077 163.367 157.345 160.303L157.563 160.218C158.038 160.013 158.508 159.785 158.98 159.568C165.933 156.521 172.104 151.938 177.03 146.163C179.353 143.298 181.07 139.992 182.08 136.445C181.58 136.43 181.08 136.39 180.58 136.36C179.873 138.83 178.783 141.175 177.35 143.308C175.032 146.563 172.219 149.436 169.013 151.823C165.95 154.189 162.646 156.226 159.155 157.898C152.237 161.191 144.77 163.175 137.13 163.75C129.198 164.469 121.202 163.628 113.593 161.275C109.196 159.899 105.165 157.551 101.8 154.405C98.7227 151.413 96.2547 147.852 94.5326 143.92C94.2676 143.328 93.3576 143.535 93.2026 144.093C92.568 146.081 91.4314 147.872 89.9026 149.293C88.6069 150.738 86.9695 151.836 85.1401 152.485C81.3526 153.598 77.7026 150.945 75.6401 147.963C71.3901 141.83 71.4076 132.36 78.4426 128.28C80.1158 127.282 82.0468 126.801 83.9926 126.898C86.3039 127.217 88.507 128.078 90.4226 129.41C90.5932 129.501 90.7926 129.523 90.9789 129.471C91.1653 129.419 91.3243 129.297 91.4226 129.13C91.4826 129.024 91.5144 128.904 91.5151 128.783C91.9349 118.944 95.4946 109.499 101.673 101.83C107.611 94.1726 115.165 87.9197 123.798 83.5176C131.213 79.9676 139.307 78.0575 147.528 77.9176C151.331 77.6695 155.147 78.1082 158.795 79.2126C162.751 80.896 166.146 83.6708 168.583 87.2126C171.582 91.2311 174.063 95.6114 175.968 100.25C178.052 105.11 179.618 110.176 180.638 115.365C180.663 115.485 180.678 115.615 180.7 115.723C181.377 116.971 182.069 118.209 182.778 119.438L182.703 118.86C181.522 110.603 178.993 102.595 175.218 95.1576C174.93 94.6001 174.628 94.0501 174.325 93.5001C173.469 91.9295 172.552 90.3933 171.575 88.8951C169.085 84.8269 165.679 81.3973 161.628 78.8801C158.259 77.2438 154.555 76.4185 150.81 76.4701C146.599 76.3622 142.387 76.6805 138.24 77.4201C134.261 78.0603 130.366 79.1446 126.628 80.6526C117.459 84.6272 109.314 90.6354 102.81 98.2226C96.0132 105.681 91.6578 115.038 90.3276 125.04C90.2301 125.88 90.1701 126.72 90.1276 127.565C88.4639 126.538 86.6176 125.842 84.6901 125.515C84.0462 125.44 83.3965 125.427 82.7501 125.478C82.2817 125.508 81.8157 125.569 81.3551 125.66C80.5604 125.815 79.7838 126.051 79.0376 126.365C77.1701 127.18 75.5218 128.425 74.2274 129.999C72.933 131.573 72.0293 133.43 71.5901 135.42C70.7305 139.789 71.5874 144.321 73.9826 148.075C76.0926 151.463 79.8701 154.613 84.1076 154.16C86.5026 153.777 88.706 152.62 90.3801 150.865C90.8051 150.465 91.2126 150.043 91.6076 149.615C92.3366 148.808 92.9769 147.924 93.5176 146.98C93.6801 146.68 93.8526 146.39 94.0001 146.085Z" fill="#292827"/>
<path d="M181.795 129C182.295 128.105 182.795 127.215 183.295 126.33C183.283 125.07 183.223 123.813 183.113 122.558H181.675C181.865 124.7 181.905 126.852 181.795 129ZM114.46 121.818V126.865C114.46 127.058 114.537 127.243 114.673 127.379C114.81 127.516 114.995 127.593 115.188 127.593C115.381 127.593 115.566 127.516 115.702 127.379C115.838 127.243 115.915 127.058 115.915 126.865V121.818C115.915 121.625 115.838 121.44 115.702 121.303C115.566 121.167 115.381 121.09 115.188 121.09C114.995 121.09 114.81 121.167 114.673 121.303C114.537 121.44 114.46 121.625 114.46 121.818ZM160.31 110.928L161.4 116.465C161.58 117.383 162.983 116.993 162.803 116.078C162.438 114.233 162.074 112.387 161.713 110.54C161.533 109.623 160.13 110 160.31 110.928ZM112.478 108.013C108.695 109.29 105.558 111.987 103.728 115.535C103.305 116.365 104.558 117.103 104.978 116.268C106.611 113.047 109.433 110.589 112.848 109.415C113.75 109.115 113.368 107.71 112.478 108.013ZM161.375 95.235C160.115 94.806 158.78 94.6432 157.455 94.7568C156.129 94.8704 154.841 95.258 153.673 95.895C152.848 96.3375 153.58 97.5925 154.405 97.145C155.407 96.6064 156.51 96.2825 157.643 96.1938C158.777 96.1051 159.917 96.2537 160.99 96.63C161.875 96.94 162.25 95.5375 161.375 95.235ZM157.123 124.405C157.046 124.301 156.94 124.221 156.818 124.177C156.696 124.132 156.564 124.125 156.438 124.155C156.348 124.17 156.263 124.204 156.188 124.255C146.112 129.843 134.772 132.756 123.25 132.715C123.106 132.717 122.966 132.761 122.847 132.842C122.727 132.923 122.635 133.037 122.58 133.17C122.525 133.303 122.51 133.449 122.538 133.591C122.566 133.732 122.634 133.862 122.735 133.965C126.623 138.825 131.985 143.413 138.458 143.893C141.569 143.968 144.639 143.168 147.318 141.584C149.996 139.999 152.176 137.693 153.608 134.93C155.291 131.829 156.533 128.507 157.298 125.063V125.045C157.318 124.82 157.255 124.596 157.12 124.415L157.123 124.405ZM85.4001 138.785C83.6628 138.94 81.9819 139.48 80.4801 140.368C80.3308 140.473 80.2266 140.63 80.188 140.809C80.1495 140.987 80.1795 141.174 80.272 141.331C80.3646 141.488 80.5129 141.605 80.6876 141.658C80.8623 141.711 81.0506 141.697 81.2151 141.618C82.4918 140.858 83.9211 140.391 85.4001 140.25C86.3226 140.15 86.3326 138.695 85.4001 138.785ZM160.64 124.125C161.634 125.886 162.063 127.91 161.866 129.923C161.67 131.936 160.859 133.839 159.543 135.375C158.925 136.075 159.95 137.108 160.57 136.403C162.108 134.636 163.062 132.436 163.299 130.105C163.536 127.775 163.046 125.428 161.895 123.388C161.79 123.238 161.632 123.134 161.454 123.095C161.275 123.057 161.089 123.087 160.932 123.179C160.774 123.272 160.657 123.42 160.604 123.595C160.551 123.77 160.566 123.958 160.645 124.123L160.64 124.125ZM164.983 121.715C166.306 124.253 167.017 127.066 167.059 129.928C167.1 132.79 166.47 135.622 165.22 138.198C164.808 139.033 166.063 139.77 166.47 138.93C167.842 136.13 168.536 133.046 168.495 129.928C168.453 126.81 167.678 123.745 166.233 120.983C165.803 120.155 164.545 120.888 164.983 121.715Z" fill="#292827"/>
<path d="M183.965 121.45C183.558 120.785 183.165 120.11 182.775 119.435C182.067 118.205 181.375 116.967 180.7 115.72C179.863 114.183 179.035 112.638 178.185 111.105C178.111 110.985 178.003 110.889 177.875 110.829C177.748 110.768 177.605 110.746 177.465 110.765C177.325 110.783 177.193 110.842 177.086 110.933C176.978 111.024 176.899 111.145 176.858 111.28C175.513 114.765 173.895 118.138 172.553 121.623C172.528 121.716 172.522 121.813 172.534 121.908C172.547 122.004 172.578 122.096 172.627 122.179C172.675 122.263 172.739 122.336 172.816 122.394C172.892 122.453 172.98 122.495 173.073 122.52C173.132 122.535 173.192 122.543 173.253 122.545H183.335C183.532 122.537 183.718 122.451 183.852 122.307C183.986 122.163 184.058 121.972 184.053 121.775C184.048 121.662 184.018 121.551 183.965 121.45ZM191.5 135.15C189.645 131.728 187.491 128.476 185.063 125.433C184.959 125.267 184.796 125.148 184.606 125.102C184.416 125.055 184.216 125.084 184.048 125.183C183.945 125.244 183.859 125.33 183.798 125.433C183.625 125.723 183.465 126.023 183.298 126.318C182.786 127.203 182.286 128.093 181.798 128.988C180.68 130.988 179.563 133.01 178.373 134.988C178.306 135.067 178.26 135.161 178.238 135.263C178.165 135.424 178.159 135.608 178.221 135.774C178.284 135.94 178.409 136.074 178.57 136.148C178.623 136.175 178.68 136.196 178.738 136.21C178.759 136.219 178.78 136.226 178.803 136.23C178.834 136.243 178.867 136.253 178.9 136.26C179.46 136.313 180.023 136.335 180.585 136.37C181.085 136.4 181.585 136.44 182.085 136.455C185.018 136.553 187.963 136.433 190.883 136.255C191.076 136.247 191.26 136.165 191.394 136.025C191.528 135.885 191.603 135.699 191.603 135.505C191.599 135.38 191.563 135.258 191.5 135.15ZM189.68 155.25C187.911 150.879 185.671 146.714 183 142.828C182.946 142.734 182.87 142.656 182.779 142.598C182.687 142.541 182.583 142.508 182.475 142.5C182.333 142.451 182.176 142.459 182.039 142.522C181.902 142.586 181.795 142.7 181.74 142.84C179.78 147.055 177.058 150.865 175.098 155.09C175.051 155.174 175.021 155.267 175.01 155.363C174.999 155.459 175.007 155.556 175.033 155.649C175.06 155.742 175.104 155.829 175.164 155.904C175.224 155.98 175.298 156.043 175.383 156.09C175.487 156.149 175.605 156.181 175.725 156.183H188.975C189.072 156.182 189.168 156.161 189.257 156.123C189.347 156.085 189.427 156.029 189.495 155.959C189.562 155.889 189.615 155.807 189.65 155.717C189.686 155.626 189.703 155.53 189.7 155.433C189.7 155.371 189.693 155.31 189.68 155.25Z" fill="#AC47F5"/>
<path d="M236.948 230.185C232.426 232.596 228.036 235.245 223.795 238.12C223.018 238.635 223.745 239.895 224.528 239.37C230.906 234.906 237.745 231.139 244.928 228.135C245.268 228.003 245.603 227.858 245.948 227.73C246.463 227.54 246.983 227.368 247.503 227.193C253.544 225.283 259.766 223.998 266.07 223.358C271.185 222.738 276.32 222.25 281.44 221.71C282.36 221.613 282.37 220.158 281.44 220.255C273.09 221.135 264.658 221.755 256.403 223.355C253.891 223.84 251.408 224.462 248.965 225.22C248.145 225.472 247.33 225.74 246.52 226.025C243.234 227.181 240.035 228.572 236.948 230.185ZM318.103 216.96C325.283 216.943 332.173 214.12 337.3 209.093C339.501 206.625 341.166 203.727 342.19 200.583C343.215 197.438 343.575 194.116 343.25 190.825C342.851 186.381 341.666 182.043 339.75 178.013C339.36 177.163 338.108 177.9 338.5 178.745C341.7 185.087 342.614 192.338 341.085 199.275C340.291 202.209 338.868 204.936 336.917 207.267C334.966 209.598 332.531 211.477 329.783 212.775C326.114 214.465 322.14 215.391 318.103 215.495C317.17 215.545 317.165 217 318.103 216.96Z" fill="#292827"/>
<path d="M248.963 263.05C245.273 263.4 241.588 263.797 237.908 264.24C237.869 264.248 237.831 264.261 237.795 264.277C237.69 264.289 237.59 264.324 237.5 264.379C237.411 264.435 237.336 264.511 237.28 264.6C233.688 270.042 232.588 277.07 232.06 283.442C231.867 285.765 231.769 288.094 231.768 290.425V291.48C231.793 295.575 232.245 299.656 233.118 303.657C233.378 304.862 233.727 306.045 234.163 307.197C234.299 307.72 234.531 308.212 234.848 308.65C235.237 308.896 235.677 309.049 236.135 309.097C236.613 309.227 237.093 309.347 237.57 309.492C240.91 310.422 244.233 311.412 247.57 312.402C247.725 312.1 247.87 311.795 248.028 311.495C248.085 311.403 248.164 311.327 248.257 311.272C248.35 311.218 248.455 311.186 248.563 311.18C248.655 311.155 248.752 311.149 248.848 311.162L251.955 311.967L271.913 317.135C269.647 313.287 268.926 308.722 269.895 304.362C270.348 302.24 271.325 299.6 273.815 299.337C274.616 299.287 275.415 299.448 276.134 299.805C276.852 300.162 277.464 300.702 277.908 301.37C277.652 292.265 278.618 283.168 280.78 274.32C281.64 271.045 283.28 265.57 286.403 262.95C287.195 262.263 288.152 261.793 289.18 261.585C275.756 261.142 262.318 261.632 248.963 263.05Z" fill="#FF7D6B"/>
<path d="M321.36 155.957C317.402 152.012 312.83 148.735 307.823 146.252C303.12 144.105 298.226 142.402 293.205 141.167C289.988 140.302 286.755 139.48 283.54 138.595C283.356 138.55 283.162 138.579 282.999 138.675C282.836 138.771 282.717 138.927 282.666 139.109C282.616 139.292 282.639 139.487 282.731 139.652C282.822 139.818 282.974 139.942 283.155 139.997C293.313 142.79 303.923 144.82 312.815 150.79C315.504 152.622 318.021 154.695 320.333 156.985C321 157.64 322.03 156.612 321.36 155.957ZM347.35 164.912L358.005 151.317C358.575 150.59 357.553 149.567 356.975 150.29L346.323 163.882C345.75 164.612 346.773 165.647 347.35 164.912ZM370.225 166.017L352.075 168.487C351.153 168.615 351.545 170.015 352.463 169.89L370.613 167.42C371.535 167.292 371.143 165.892 370.225 166.017ZM487.69 351.337C486.983 345.562 485.185 339.973 482.393 334.868C479.21 328.47 475.033 322.637 471.753 316.297C470.457 313.638 469.345 310.893 468.423 308.082C465.605 300.14 463.195 292.048 460.865 283.947C460.586 284.6 460.274 285.239 459.93 285.86C456.065 292.86 448.248 297.66 440.163 295.4C439.853 296.253 439.52 297.097 439.15 297.925C439.11 299.255 439.068 300.585 439.048 301.925C438.96 307.817 439.135 313.71 439.095 319.6C439.08 325.281 438.655 330.953 437.825 336.572C437.745 337.097 437.665 337.617 437.575 338.13C443.922 341.042 449.407 345.545 453.5 351.202C458.679 358.098 462.995 365.603 466.35 373.548C467.981 377.258 469.495 381.018 470.89 384.822C471.09 385.36 471.303 385.89 471.498 386.427C473.26 384.042 475.248 381.822 477.01 379.427C479.727 375.8 482.022 371.876 483.853 367.73C484.965 365.178 485.89 362.549 486.62 359.863C487.465 357.104 487.827 354.22 487.69 351.337ZM453.613 257.25C452.749 253.079 451.439 249.012 449.708 245.12C446.856 239.473 442.94 234.43 438.175 230.267C435.972 228.242 433.559 226.457 430.978 224.942C428.382 223.5 425.636 222.348 422.788 221.507C416.933 219.741 410.802 219.076 404.705 219.545C403.42 219.647 402.14 219.817 400.87 220.045C392.065 213.777 379.898 213.212 369.798 216.347C364.584 218.245 359.819 221.198 355.798 225.02C350.04 230.19 344.848 235.957 340.31 242.225C334.701 249.828 329.724 257.877 325.43 266.292C322.786 271.45 320.371 276.722 318.193 282.092C318.36 282.16 318.535 282.215 318.693 282.297C319.981 282.983 320.97 284.12 321.469 285.491C321.969 286.862 321.943 288.369 321.398 289.722C320.896 291.157 320.049 292.446 318.931 293.476C317.813 294.505 316.459 295.243 314.988 295.625C314.908 295.64 314.828 295.625 314.738 295.647C314.226 295.716 313.708 295.722 313.195 295.665C312.608 297.49 312.048 299.323 311.518 301.165C311.965 301.406 312.384 301.695 312.768 302.027C313.24 302.432 313.653 302.901 313.995 303.42C314.841 304.917 315.06 306.688 314.603 308.346C314.146 310.004 313.051 311.413 311.558 312.265C311.068 312.541 310.546 312.754 310.003 312.897C309.5 313.025 308.984 313.097 308.465 313.112C307.332 318.241 306.428 323.417 305.755 328.625C305.01 334.383 304.578 340.178 304.46 345.982C304.403 348.893 304.429 351.802 304.538 354.712C304.572 357.346 304.813 359.972 305.258 362.567C306.063 366.375 307.7 369.959 310.05 373.061C312.4 376.164 315.406 378.71 318.853 380.517C319.39 380.82 319.94 381.095 320.488 381.37C320.795 380.975 321.105 380.587 321.408 380.192C323.925 376.89 326.315 373.485 328.775 370.145C336.213 360.047 344.305 350.025 354.888 343.06C358.123 340.922 361.588 339.155 365.218 337.79C364.733 335.502 364.45 333.135 364.183 330.85C363.815 327.623 363.613 324.38 363.578 321.132C363.55 319.1 363.578 317.07 363.623 315.037C362.94 314.59 362.255 314.147 361.605 313.65C355.164 308.554 350.496 301.555 348.265 293.65C345.918 285.639 345.688 277.156 347.598 269.03C348.553 264.866 350.269 260.913 352.66 257.372C355.105 253.858 358.053 250.722 361.41 248.065C364.816 245.255 368.591 242.924 372.63 241.137C376.532 239.465 380.642 238.325 384.848 237.747C392.704 236.698 400.692 237.275 408.315 239.442C411.612 240.353 414.811 241.587 417.865 243.127C420.857 244.68 423.631 246.62 426.115 248.897C433.172 255.065 438.31 263.13 440.918 272.132C443.653 268.715 447.08 265.312 451.668 265.132C452.53 265.102 453.393 265.198 454.228 265.417C454.803 265.569 455.362 265.776 455.898 266.035C455.123 263.092 454.343 260.175 453.613 257.25ZM328.198 305C327.643 305.75 326.38 305.015 326.948 304.265C329.131 301.003 330.04 297.053 329.5 293.165C328.983 288.955 327.422 284.941 324.96 281.487C324.433 280.71 325.693 279.987 326.21 280.753C328.804 284.429 330.437 288.696 330.96 293.165C331.512 297.313 330.535 301.52 328.21 305H328.198ZM335.473 307.537C334.973 308.327 333.723 307.597 334.223 306.802C335.452 304.874 336.373 302.765 336.95 300.552C337.9 296.64 337.811 292.547 336.693 288.68C335.574 284.812 333.464 281.304 330.573 278.502C329.905 277.845 330.935 276.817 331.603 277.475C333.376 279.21 334.885 281.195 336.083 283.367C338.134 287.086 339.16 291.283 339.054 295.529C338.948 299.775 337.715 303.916 335.48 307.527L335.473 307.537ZM343.118 310.082C342.665 310.902 341.41 310.167 341.868 309.347C343.216 306.92 344.203 304.31 344.798 301.597C345.772 296.777 345.558 291.791 344.172 287.072C342.787 282.352 340.273 278.042 336.848 274.512C336.2 273.835 337.228 272.807 337.875 273.485C339.953 275.645 341.727 278.078 343.148 280.717C345.583 285.228 346.857 290.275 346.852 295.402C346.848 300.529 345.566 305.573 343.123 310.08L343.118 310.082ZM357.68 177.675C356.77 177.457 356.383 178.86 357.293 179.075L369.448 181.955C370.358 182.172 370.745 180.77 369.833 180.555L357.68 177.675ZM295.648 276.787C294.738 275.834 294.174 274.603 294.046 273.292C293.918 271.981 294.232 270.664 294.94 269.552C295.035 269.38 295.15 269.225 295.255 269.052C294.893 267.956 294.442 266.892 293.905 265.87C293.536 265.142 293.067 264.469 292.513 263.87C292.321 263.656 292.099 263.469 291.855 263.317C291.669 263.175 291.451 263.079 291.22 263.04C288.545 262.442 286.508 264.6 285.198 266.832C283.463 270.075 282.242 273.568 281.58 277.185C280.67 281.463 280.057 285.8 279.745 290.162C279.889 290.122 280.043 290.13 280.183 290.185H280.21C280.238 290.191 280.266 290.199 280.293 290.21C281.644 291.016 282.783 292.135 283.611 293.473C284.44 294.811 284.935 296.328 285.055 297.897C285.236 299.535 284.824 301.183 283.893 302.542C282.962 303.901 281.575 304.882 279.983 305.305C279.894 305.324 279.802 305.324 279.713 305.305C280.153 306.993 280.795 308.621 281.625 310.155C282.122 311.154 282.851 312.02 283.752 312.679C284.652 313.338 285.697 313.771 286.8 313.943C288.055 313.918 289.285 313.58 290.376 312.96C291.468 312.339 292.387 311.456 293.05 310.39C294.398 308.424 295.373 306.226 295.928 303.908C296.852 298.991 297.34 294.002 297.385 289C297.397 288.839 297.459 288.685 297.563 288.562C297.668 288.438 297.808 288.351 297.965 288.312C297.952 284.838 297.708 281.367 297.233 277.925C296.654 277.622 296.12 277.239 295.648 276.787ZM293.33 292.222C292.586 292.888 291.686 293.356 290.714 293.583C289.741 293.81 288.727 293.789 287.765 293.522C286.857 293.24 286.014 292.779 285.287 292.166C284.56 291.553 283.964 290.8 283.533 289.952C282.673 287.866 282.47 285.567 282.953 283.362C283.132 282.16 283.619 281.025 284.368 280.068C285.117 279.11 286.101 278.363 287.225 277.9C288.751 277.328 290.414 277.222 292 277.597C292.884 277.864 293.705 278.306 294.413 278.898C295.121 279.49 295.702 280.22 296.12 281.042C296.98 282.948 297.173 285.088 296.667 287.117C296.16 289.146 294.985 290.944 293.33 292.222ZM340.975 171.32C340.482 168.881 339.092 166.716 337.08 165.252C335.114 163.766 332.962 162.545 330.678 161.62C328.283 160.703 326.085 159.34 324.2 157.602C324.059 157.469 323.87 157.398 323.676 157.403C323.482 157.409 323.298 157.491 323.165 157.632C323.082 157.722 323.022 157.831 322.991 157.949C322.96 158.067 322.958 158.191 322.985 158.31C323.706 162.569 324.966 166.719 326.735 170.66C328.073 173.557 330.19 177.455 333.623 178.192C334.483 178.292 335.354 178.221 336.186 177.984C337.019 177.747 337.797 177.349 338.475 176.811C339.154 176.273 339.72 175.607 340.141 174.851C340.562 174.094 340.83 173.262 340.93 172.402C340.971 172.043 340.982 171.681 340.965 171.32H340.975ZM334.975 168.252L336.915 169.705C337.665 170.26 336.93 171.52 336.183 170.955L334.25 169.5C333.5 168.952 334.223 167.69 334.97 168.25L334.975 168.252ZM314.448 215.597C313.009 215.686 311.568 215.488 310.207 215.013C308.847 214.539 307.594 213.799 306.523 212.835C304.467 211.192 302.129 209.939 299.623 209.137C298.53 208.793 297.367 208.733 296.244 208.962C295.122 209.191 294.076 209.702 293.205 210.447C291.792 211.949 290.536 213.591 289.455 215.347C288.748 216.394 287.968 217.389 287.12 218.325C286.519 219.053 285.735 219.607 284.848 219.93C284.739 219.946 284.637 219.992 284.553 220.062C284.451 220.129 284.371 220.224 284.32 220.334C284.27 220.445 284.252 220.567 284.268 220.687V220.78C284.268 220.812 284.268 220.835 284.288 220.862C284.327 221.02 284.422 221.157 284.555 221.25L284.65 221.3C284.685 221.323 284.722 221.343 284.76 221.36C287.519 221.827 290.166 222.808 292.563 224.252C293.639 225.111 294.668 226.03 295.643 227.002C296.374 227.862 297.302 228.532 298.348 228.957C303.44 230.625 306.993 225.247 309.695 221.905C310.495 220.905 311.315 219.935 312.195 219.022C312.906 218.172 313.797 217.489 314.803 217.022C314.989 216.971 315.147 216.848 315.242 216.68C315.337 216.512 315.361 216.313 315.31 216.127C315.259 215.941 315.136 215.784 314.968 215.688C314.8 215.593 314.601 215.569 314.415 215.62L314.448 215.597ZM300.5 212.78C298.64 212.944 296.911 213.806 295.66 215.192C295.028 215.885 294 214.852 294.633 214.165C296.158 212.51 298.255 211.496 300.5 211.327C301.435 211.247 301.428 212.702 300.5 212.78ZM221.08 240.342C216.472 241.766 211.973 243.521 207.618 245.592C205.504 246.588 203.526 247.848 201.73 249.342C200.336 250.428 199.34 251.944 198.898 253.655C198.785 254.719 198.944 255.794 199.36 256.78C199.776 257.765 200.436 258.629 201.278 259.29C202.534 260.537 204.176 261.321 205.935 261.515C207.596 261.567 209.227 261.062 210.568 260.08C214.075 257.28 216.82 253.641 218.55 249.5C219.861 246.824 221.004 244.068 221.973 241.25C222.021 241.062 221.994 240.863 221.897 240.695C221.799 240.528 221.64 240.405 221.453 240.355C221.332 240.318 221.203 240.314 221.08 240.342ZM207.75 249.147C205.51 250.321 203.692 252.165 202.553 254.422C202.13 255.257 200.875 254.52 201.303 253.69C202.563 251.212 204.562 249.186 207.023 247.892C207.853 247.455 208.585 248.71 207.75 249.147Z" fill="#292827"/>
<path d="M285.055 297.905C284.936 296.336 284.44 294.818 283.612 293.48C282.783 292.143 281.644 291.024 280.293 290.218C280.266 290.207 280.238 290.199 280.21 290.193H280.183C280.043 290.138 279.89 290.13 279.745 290.17L279.683 290.193C279.561 290.23 279.453 290.302 279.372 290.4C279.29 290.497 279.239 290.616 279.223 290.743V290.8C279.222 290.818 279.222 290.837 279.223 290.855L279.095 303.49C279.333 304.103 279.543 304.718 279.735 305.335C279.824 305.354 279.916 305.354 280.005 305.335C281.597 304.907 282.983 303.921 283.91 302.558C284.836 301.194 285.243 299.543 285.055 297.905ZM296.12 281.043C295.702 280.22 295.121 279.49 294.413 278.898C293.705 278.306 292.884 277.864 292 277.598C290.414 277.222 288.752 277.328 287.225 277.9C286.101 278.363 285.117 279.11 284.368 280.068C283.619 281.025 283.132 282.16 282.953 283.363C282.47 285.567 282.673 287.866 283.533 289.953C283.964 290.8 284.56 291.553 285.287 292.166C286.014 292.779 286.857 293.241 287.765 293.523C288.727 293.789 289.741 293.81 290.714 293.583C291.686 293.356 292.586 292.888 293.33 292.223C294.985 290.944 296.16 289.146 296.667 287.117C297.173 285.088 296.98 282.948 296.12 281.043ZM476.25 400.87C474.795 396.012 473.212 391.194 471.5 386.418C471.305 385.88 471.093 385.35 470.893 384.813C469.497 381.008 467.983 377.248 466.353 373.538C462.998 365.593 458.682 358.088 453.503 351.193C449.41 345.535 443.924 341.032 437.578 338.12C437.493 338.608 437.393 339.09 437.278 339.565C437.029 340.712 436.594 341.81 435.988 342.815C434.904 344.471 433.533 345.92 431.94 347.095C427.876 350.01 423.323 352.172 418.495 353.48C412.981 355.13 407.305 356.185 401.565 356.625C395.742 357.258 389.851 356.815 384.188 355.318C379.536 353.999 375.235 351.661 371.6 348.473C368.976 346.3 366.989 343.458 365.85 340.248C365.745 339.903 365.67 339.545 365.58 339.195C365.46 338.725 365.33 338.26 365.23 337.783C361.601 339.147 358.136 340.915 354.9 343.053C344.318 350.018 336.225 360.04 328.788 370.138C326.328 373.478 323.938 376.888 321.42 380.185C321.118 380.58 320.808 380.968 320.5 381.363C320.083 381.895 319.675 382.438 319.25 382.965C316.015 387.448 311.531 390.879 306.358 392.83C297.108 395.83 289.295 389.058 286.358 380.688C284.982 376.334 284.158 371.824 283.905 367.265C283.469 362.612 283.352 357.934 283.555 353.265C283.684 350.592 283.964 347.929 284.395 345.288V345.19C284.341 345.324 284.249 345.44 284.13 345.521C284.011 345.603 283.87 345.648 283.725 345.65C280.194 345.52 276.66 345.503 273.128 345.598C260.663 345.915 248.263 347.348 235.848 348.425C235.771 348.436 235.693 348.432 235.618 348.413C235.543 348.394 235.472 348.361 235.41 348.314C235.348 348.268 235.296 348.209 235.256 348.142C235.217 348.076 235.191 348.002 235.18 347.925C235.145 347.828 235.133 347.725 235.143 347.623C235.143 347.645 235.108 347.655 235.103 347.68C230.318 367.083 226.825 387.973 232.523 407.555C234.943 416.149 239.114 424.15 244.773 431.055C250.855 438.255 258.72 443.732 267.583 446.94C278.447 450.6 289.873 452.306 301.333 451.98H487.033C487.227 451.974 487.412 451.892 487.547 451.752C487.682 451.612 487.758 451.425 487.758 451.23C487.755 451.174 487.748 451.118 487.735 451.063C484.935 434.113 481.099 417.351 476.25 400.87ZM435.553 437.925L436.053 401.425C436.064 401.24 436.145 401.066 436.28 400.938C436.415 400.811 436.593 400.74 436.779 400.74C436.965 400.74 437.143 400.811 437.278 400.938C437.413 401.066 437.494 401.24 437.505 401.425L437.36 411.878L436.86 448.378C436.86 448.571 436.784 448.756 436.647 448.892C436.511 449.028 436.326 449.105 436.133 449.105C435.94 449.105 435.755 449.028 435.618 448.892C435.482 448.756 435.405 448.571 435.405 448.378L435.553 437.925ZM319.455 282.768C319.218 282.588 318.967 282.426 318.705 282.285C318.543 282.203 318.368 282.148 318.205 282.08C316.938 281.612 315.572 281.474 314.236 281.681C312.901 281.887 311.64 282.431 310.573 283.26C309.355 284.285 308.465 285.646 308.014 287.173C307.563 288.7 307.572 290.325 308.038 291.848C308.598 293.122 309.557 294.18 310.77 294.863C311.983 295.546 313.385 295.817 314.765 295.635C314.845 295.623 314.925 295.635 315.015 295.613C316.486 295.231 317.841 294.493 318.959 293.463C320.077 292.434 320.924 291.145 321.425 289.71C321.92 288.499 321.994 287.157 321.637 285.899C321.28 284.641 320.512 283.538 319.455 282.768ZM302.283 265.773C301.204 265.584 300.096 265.663 299.054 266.001C298.013 266.339 297.07 266.927 296.308 267.713C295.911 268.124 295.558 268.575 295.255 269.06C295.15 269.225 295.035 269.38 294.94 269.56C294.233 270.672 293.918 271.988 294.046 273.3C294.174 274.611 294.738 275.842 295.648 276.795C296.117 277.253 296.648 277.643 297.225 277.953C297.713 278.21 298.227 278.413 298.758 278.56C299.816 278.898 300.942 278.969 302.035 278.766C303.127 278.563 304.153 278.093 305.019 277.397C305.886 276.701 306.566 275.802 307.001 274.779C307.435 273.756 307.609 272.642 307.508 271.535C307.444 270.116 306.887 268.764 305.933 267.712C304.98 266.66 303.688 265.974 302.283 265.773Z" fill="#FEE253"/>
<path d="M304.355 301.72C304.375 301.15 304.4 300.578 304.41 300.013C304.275 298.07 303.695 296.184 302.713 294.503C301.731 292.821 300.375 291.388 298.75 290.315C298.772 295.347 298.202 300.364 297.053 305.263C295.775 309.468 293.078 314.55 288.28 315.33C283.545 316.1 280.445 311.89 278.978 307.963C278.145 305.74 277.94 302.58 275.708 301.238C275.209 300.869 274.584 300.713 273.971 300.804C273.358 300.895 272.805 301.225 272.435 301.723C271.812 302.709 271.407 303.817 271.248 304.973C270.749 307.208 270.76 309.526 271.279 311.757C271.798 313.987 272.813 316.072 274.248 317.858C274.298 317.913 274.341 317.977 274.373 318.045C275.11 318.975 276.025 319.749 277.063 320.324C278.101 320.899 279.243 321.263 280.423 321.395C281.345 321.495 281.35 322.95 280.423 322.85C277.638 322.562 275.081 321.182 273.313 319.013L270.435 318.263L249.028 312.718C247.963 314.763 246.97 316.846 246.05 318.968C242.213 328.005 239.12 337.34 236.8 346.88C239.98 346.602 243.159 346.312 246.338 346.01C258.55 344.619 270.839 344.008 283.13 344.18C283.904 339.643 285.336 335.244 287.38 331.12C289.357 327.208 292.074 323.717 295.38 320.84C297.097 319.632 298.733 318.314 300.28 316.895C301.5 315.457 302.396 313.773 302.908 311.958C303.028 311.565 303.103 311.155 303.205 310.755C302.507 309.891 302 308.889 301.718 307.815C301.523 306.653 301.668 305.459 302.136 304.378C302.604 303.297 303.375 302.374 304.355 301.72Z" fill="#FFCEB6"/>
<path d="M235.838 348.405C248.253 347.333 260.653 345.905 273.118 345.578C276.651 345.483 280.186 345.5 283.718 345.63C283.862 345.628 284.002 345.583 284.121 345.501C284.24 345.419 284.332 345.304 284.385 345.17C284.399 345.147 284.409 345.123 284.418 345.098C285.599 336.103 289.914 327.813 296.603 321.685C298.378 320.47 300.043 319.1 301.578 317.593C302.78 316.092 303.685 314.375 304.243 312.535C304.313 312.323 304.365 312.108 304.428 311.893C303.972 311.563 303.561 311.174 303.205 310.738C303.103 311.138 303.028 311.548 302.908 311.94C302.396 313.755 301.5 315.439 300.28 316.878C298.733 318.297 297.097 319.614 295.38 320.823C292.075 323.7 289.358 327.191 287.38 331.103C285.336 335.226 283.904 339.626 283.13 344.163C270.84 343.991 258.551 344.602 246.338 345.993C243.161 346.289 239.982 346.579 236.8 346.863C239.12 337.322 242.213 327.987 246.05 318.95C246.972 316.838 247.964 314.755 249.028 312.7L270.435 318.245L273.313 318.995C273.213 318.875 273.108 318.76 273.01 318.635C272.445 317.885 273.708 317.165 274.26 317.903L274.365 318.028C274.333 317.959 274.291 317.896 274.24 317.84C272.806 316.055 271.791 313.97 271.272 311.739C270.752 309.509 270.742 307.19 271.24 304.955C271.4 303.799 271.804 302.691 272.428 301.705C272.798 301.207 273.35 300.877 273.964 300.786C274.577 300.695 275.202 300.851 275.7 301.22C277.933 302.563 278.138 305.72 278.97 307.945C280.438 311.873 283.538 316.083 288.273 315.313C293.07 314.533 295.773 309.45 297.045 305.245C298.195 300.346 298.764 295.329 298.743 290.298C300.368 291.37 301.724 292.803 302.706 294.485C303.687 296.167 304.268 298.052 304.403 299.995C304.403 300.56 304.368 301.133 304.348 301.703C304.804 301.357 305.298 301.065 305.82 300.833L305.845 300.333C305.764 298.061 305.133 295.843 304.007 293.869C302.881 291.894 301.294 290.222 299.38 288.995C299.078 288.788 298.775 288.568 298.463 288.388C298.31 288.303 298.131 288.282 297.963 288.328C297.806 288.366 297.665 288.454 297.561 288.577C297.457 288.701 297.394 288.854 297.383 289.015C297.338 294.017 296.85 299.006 295.925 303.923C295.372 306.242 294.397 308.439 293.048 310.405C292.384 311.471 291.465 312.354 290.374 312.975C289.282 313.595 288.053 313.933 286.798 313.958C285.695 313.786 284.65 313.353 283.749 312.694C282.849 312.035 282.119 311.169 281.623 310.17C280.793 308.636 280.151 307.008 279.71 305.32C279.518 304.698 279.304 304.083 279.07 303.475C279.048 303.418 279.033 303.358 279.01 303.3C278.731 302.607 278.357 301.956 277.9 301.365C277.457 300.697 276.845 300.157 276.126 299.8C275.408 299.443 274.608 299.282 273.808 299.333C271.308 299.595 270.34 302.235 269.888 304.358C268.918 308.717 269.639 313.282 271.905 317.13L251.948 311.96L248.84 311.158C248.745 311.145 248.648 311.151 248.555 311.175C248.447 311.181 248.342 311.213 248.249 311.267C248.156 311.322 248.078 311.399 248.02 311.49C247.863 311.79 247.718 312.095 247.563 312.398C243.388 320.808 240.026 329.598 237.523 338.648C236.668 341.578 235.872 344.523 235.135 347.485C235.123 347.628 235.134 347.773 235.168 347.913C235.179 347.989 235.206 348.062 235.246 348.128C235.286 348.194 235.338 348.252 235.401 348.298C235.463 348.343 235.533 348.376 235.608 348.395C235.683 348.413 235.761 348.417 235.838 348.405Z" fill="#292827"/>
<path d="M365.165 324.94C365.323 328.256 365.677 331.559 366.225 334.833C366.457 337.041 366.988 339.207 367.803 341.273C369.453 344.473 371.88 347.208 374.86 349.228C378.972 352.112 383.681 354.033 388.638 354.848C394.328 355.669 400.111 355.624 405.788 354.713C411.25 354.023 416.617 352.721 421.788 350.83C426.093 349.438 430.026 347.086 433.288 343.95C434.484 342.736 435.36 341.244 435.838 339.608C436.148 338.257 436.383 336.89 436.54 335.513C436.759 334.013 436.943 332.513 437.093 331.013C438.105 321.013 437.538 310.94 437.65 300.903C437.573 301.043 437.5 301.185 437.418 301.323C432.752 308.854 425.832 314.725 417.64 318.1C408.129 321.916 397.839 323.384 387.64 322.38C379.729 321.973 372.014 319.767 365.083 315.93C365.003 318.933 365.03 321.939 365.165 324.94Z" fill="#FFCEB6"/>
<path d="M439.095 319.59C439.135 313.7 438.96 307.808 439.048 301.915C439.068 300.585 439.11 299.255 439.15 297.915C438.695 298.932 438.188 299.926 437.633 300.893C437.52 310.93 438.088 321.008 437.075 331.003C436.925 332.503 436.741 334.003 436.523 335.503C436.365 336.88 436.131 338.247 435.82 339.598C435.342 341.234 434.466 342.726 433.27 343.94C430.008 347.076 426.076 349.428 421.77 350.82C416.6 352.711 411.232 354.013 405.77 354.703C400.093 355.614 394.311 355.659 388.62 354.838C383.664 354.023 378.955 352.102 374.843 349.218C371.862 347.198 369.436 344.463 367.785 341.263C366.971 339.197 366.44 337.031 366.208 334.823C365.66 331.549 365.306 328.246 365.148 324.93C364.998 321.93 365 318.93 365.055 315.93C364.57 315.638 364.091 315.335 363.62 315.02C363.569 317.051 363.554 319.083 363.575 321.115C363.61 324.362 363.812 327.606 364.18 330.833C364.448 333.118 364.73 335.485 365.215 337.773C365.318 338.25 365.445 338.715 365.565 339.185C365.655 339.535 365.73 339.893 365.835 340.238C366.974 343.448 368.961 346.29 371.585 348.463C375.22 351.651 379.521 353.989 384.173 355.308C389.836 356.805 395.727 357.248 401.55 356.615C407.29 356.175 412.966 355.12 418.48 353.47C423.308 352.162 427.861 350 431.925 347.085C433.518 345.91 434.889 344.461 435.973 342.805C436.579 341.8 437.014 340.702 437.263 339.555C437.378 339.08 437.478 338.598 437.563 338.11C437.65 337.61 437.73 337.078 437.813 336.553C438.647 330.936 439.075 325.268 439.095 319.59Z" fill="#292827"/>
<path d="M314 303.403C313.658 302.883 313.245 302.415 312.773 302.01C312.389 301.678 311.97 301.388 311.523 301.148C310.111 300.356 308.455 300.12 306.878 300.485C306.516 300.578 306.162 300.7 305.82 300.85C305.298 301.083 304.804 301.375 304.348 301.72C303.37 302.372 302.602 303.292 302.134 304.37C301.666 305.448 301.519 306.638 301.71 307.798C301.992 308.872 302.499 309.874 303.198 310.738C303.553 311.174 303.964 311.562 304.42 311.893C305.079 312.376 305.826 312.723 306.62 312.915C307.227 313.055 307.85 313.115 308.473 313.095C308.992 313.08 309.507 313.008 310.01 312.88C310.971 312.626 311.86 312.155 312.61 311.504C313.36 310.853 313.951 310.039 314.337 309.123C314.723 308.208 314.895 307.217 314.838 306.225C314.781 305.233 314.498 304.268 314.01 303.403H314Z" fill="#FEE253"/>
<path d="M441.233 274.045C441.126 274.208 440.961 274.323 440.772 274.366C440.583 274.409 440.384 274.378 440.218 274.278C440.067 274.184 439.956 274.039 439.905 273.87C439.376 271.562 438.65 269.304 437.735 267.12C435.811 262.739 433.235 258.675 430.095 255.065C427.42 251.817 424.315 248.949 420.865 246.54C415.415 243.065 409.32 240.725 402.945 239.658C395.247 238.142 387.31 238.336 379.695 240.228C371.482 242.437 364.028 246.846 358.135 252.978C355.229 255.912 352.852 259.327 351.108 263.07C349.469 266.835 348.441 270.837 348.06 274.925C347.154 282.861 348.338 290.895 351.495 298.233C354.745 305.806 360.513 312.023 367.823 315.83C376.24 319.749 385.479 321.581 394.755 321.17C404.384 321.258 413.868 318.83 422.27 314.125C430.018 309.728 435.949 302.717 439.003 294.347C439.06 294.167 439.185 294.015 439.35 293.922C439.516 293.829 439.711 293.802 439.895 293.848C442.687 294.686 445.662 294.702 448.463 293.894C451.264 293.087 453.773 291.489 455.69 289.293C457.759 287.262 459.278 284.74 460.104 281.962C460.931 279.184 461.039 276.241 460.418 273.41C459.87 271.446 458.693 269.715 457.067 268.484C455.441 267.252 453.457 266.588 451.418 266.593C447 266.868 443.725 270.782 441.233 274.045ZM358.613 259.71C360.084 258.153 361.957 257.032 364.025 256.471C366.093 255.911 368.276 255.932 370.333 256.533C370.514 256.588 370.666 256.712 370.757 256.878C370.848 257.043 370.871 257.238 370.821 257.421C370.771 257.603 370.652 257.759 370.489 257.855C370.326 257.951 370.131 257.98 369.948 257.935C368.139 257.401 366.217 257.381 364.398 257.876C362.578 258.371 360.932 259.361 359.643 260.737C359 261.423 357.978 260.393 358.613 259.71ZM370.213 280.833C369.846 281.5 369.328 282.072 368.701 282.503C368.074 282.935 367.354 283.214 366.6 283.319C365.846 283.424 365.078 283.351 364.357 283.106C363.636 282.861 362.982 282.452 362.448 281.91C361.743 281.123 361.204 280.201 360.863 279.201C360.522 278.2 360.387 277.141 360.465 276.087C360.476 275.902 360.557 275.728 360.692 275.601C360.827 275.474 361.006 275.403 361.191 275.403C361.377 275.403 361.555 275.474 361.69 275.601C361.825 275.728 361.907 275.902 361.918 276.087C361.918 278.182 362.418 280.77 364.638 281.588C365.345 281.945 366.16 282.028 366.925 281.822C367.69 281.616 368.353 281.134 368.785 280.47C369.333 279.077 369.547 277.576 369.412 276.085C369.412 275.892 369.489 275.707 369.626 275.571C369.762 275.434 369.947 275.357 370.14 275.357C370.333 275.357 370.518 275.434 370.654 275.571C370.791 275.707 370.867 275.892 370.867 276.085C370.972 277.695 370.749 279.31 370.213 280.833ZM410.635 291.638C409.903 293.76 408.85 295.759 407.513 297.563C405.675 299.956 403.281 301.865 400.539 303.123C397.796 304.382 394.788 304.951 391.775 304.783C383.97 304.475 377.802 298.05 373.965 291.81C373.917 291.726 373.886 291.634 373.874 291.538C373.862 291.443 373.868 291.346 373.894 291.253C373.92 291.16 373.963 291.073 374.023 290.997C374.082 290.921 374.156 290.857 374.24 290.81C374.347 290.749 374.469 290.716 374.593 290.715C386.373 290.913 398.152 290.518 409.935 290.715C410.085 290.718 410.23 290.77 410.348 290.863C410.485 290.931 410.591 291.049 410.644 291.193C410.698 291.337 410.694 291.496 410.635 291.638ZM413.87 257.065C415.898 256.424 418.075 256.422 420.104 257.061C422.134 257.7 423.917 258.948 425.213 260.635C425.783 261.385 424.52 262.1 423.963 261.367C422.832 259.955 421.298 258.92 419.565 258.401C417.831 257.883 415.981 257.905 414.26 258.465C413.363 258.75 412.985 257.355 413.87 257.065ZM425.783 280.565C425.415 281.232 424.897 281.803 424.27 282.235C423.643 282.666 422.924 282.945 422.17 283.05C421.416 283.154 420.648 283.082 419.927 282.837C419.206 282.593 418.552 282.184 418.017 281.642C417.312 280.855 416.773 279.934 416.432 278.933C416.091 277.933 415.955 276.874 416.033 275.82C416.033 275.627 416.109 275.442 416.246 275.306C416.382 275.169 416.567 275.093 416.76 275.093C416.953 275.093 417.138 275.169 417.274 275.306C417.411 275.442 417.488 275.627 417.488 275.82C417.488 277.915 417.987 280.503 420.205 281.32C420.913 281.677 421.728 281.76 422.494 281.554C423.259 281.348 423.922 280.867 424.355 280.203C424.9 278.809 425.115 277.308 424.983 275.818C424.993 275.632 425.075 275.458 425.21 275.331C425.345 275.204 425.523 275.133 425.709 275.133C425.894 275.133 426.073 275.204 426.208 275.331C426.343 275.458 426.424 275.632 426.435 275.818C426.54 277.427 426.318 279.041 425.783 280.562V280.565ZM451.143 280.858L442.085 286.795C441.3 287.31 440.573 286.045 441.353 285.545L450.408 279.608C451.193 279.085 451.92 280.345 451.143 280.855V280.858Z" fill="#FFCEB6"/>
<path d="M451.668 265.107C447.083 265.285 443.655 268.687 440.918 272.107C438.31 263.105 433.173 255.04 426.115 248.872C423.631 246.595 420.857 244.655 417.865 243.102C414.811 241.562 411.612 240.328 408.315 239.417C400.692 237.25 392.704 236.673 384.848 237.722C380.642 238.3 376.532 239.44 372.63 241.112C368.592 242.899 364.817 245.23 361.41 248.04C358.054 250.697 355.105 253.833 352.66 257.347C350.27 260.889 348.554 264.841 347.598 269.005C345.688 277.131 345.918 285.614 348.265 293.625C350.496 301.53 355.164 308.529 361.605 313.625C362.255 314.125 362.943 314.562 363.623 315.012C364.098 315.325 364.57 315.635 365.058 315.922C371.989 319.758 379.704 321.964 387.615 322.372C397.814 323.375 408.104 321.907 417.615 318.092C425.807 314.717 432.727 308.847 437.393 301.315C437.475 301.177 437.548 301.035 437.625 300.895C438.181 299.928 438.687 298.935 439.143 297.917C439.513 297.09 439.845 296.245 440.155 295.392C448.24 297.642 456.058 292.847 459.923 285.852C460.267 285.231 460.579 284.591 460.858 283.937C461.205 283.142 461.5 282.324 461.74 281.49C462.562 278.72 462.589 275.775 461.82 272.99C461.349 271.487 460.581 270.093 459.563 268.89C458.544 267.688 457.296 266.702 455.89 265.99C455.355 265.731 454.795 265.524 454.22 265.372C453.387 265.159 452.527 265.07 451.668 265.107ZM460.418 273.392C461.039 276.224 460.932 279.166 460.105 281.944C459.278 284.722 457.759 287.245 455.69 289.275C453.774 291.471 451.265 293.069 448.464 293.877C445.664 294.684 442.689 294.668 439.898 293.83C439.713 293.784 439.518 293.81 439.351 293.903C439.185 293.996 439.061 294.149 439.003 294.33C435.95 302.7 430.019 309.71 422.27 314.107C413.869 318.812 404.384 321.24 394.755 321.152C385.479 321.564 376.24 319.732 367.823 315.812C360.514 312.005 354.745 305.788 351.495 298.215C348.34 290.878 347.156 282.843 348.06 274.907C348.441 270.819 349.47 266.818 351.108 263.052C352.852 259.308 355.231 255.894 358.138 252.96C364.03 246.828 371.483 242.42 379.695 240.21C387.31 238.319 395.247 238.124 402.945 239.64C409.32 240.707 415.415 243.048 420.865 246.522C424.315 248.932 427.42 251.8 430.095 255.047C433.235 258.657 435.811 262.722 437.735 267.102C438.651 269.286 439.377 271.544 439.905 273.852C439.947 273.987 440.027 274.107 440.134 274.197C440.242 274.288 440.373 274.346 440.513 274.364C440.653 274.383 440.795 274.361 440.922 274.301C441.05 274.241 441.157 274.146 441.233 274.027C443.733 270.777 447.003 266.85 451.425 266.557C453.467 266.554 455.453 267.221 457.079 268.456C458.705 269.691 459.88 271.425 460.425 273.392H460.418Z" fill="#292827"/>
<path d="M450.408 279.6L441.353 285.537C440.573 286.037 441.3 287.307 442.085 286.787L451.143 280.85C451.92 280.345 451.193 279.085 450.408 279.6ZM424.983 275.818C425.115 277.308 424.9 278.809 424.355 280.203C423.922 280.867 423.259 281.348 422.494 281.554C421.728 281.76 420.913 281.677 420.205 281.32C417.988 280.498 417.488 277.913 417.488 275.82C417.488 275.627 417.411 275.442 417.275 275.306C417.138 275.169 416.953 275.093 416.76 275.093C416.567 275.093 416.382 275.169 416.246 275.306C416.109 275.442 416.033 275.627 416.033 275.82C415.955 276.874 416.091 277.933 416.432 278.933C416.773 279.934 417.313 280.855 418.018 281.643C418.553 282.184 419.207 282.593 419.927 282.837C420.648 283.082 421.416 283.154 422.17 283.05C422.924 282.945 423.643 282.666 424.27 282.235C424.897 281.803 425.415 281.232 425.783 280.565C426.319 279.042 426.541 277.426 426.435 275.815C426.424 275.63 426.343 275.456 426.208 275.328C426.073 275.201 425.895 275.13 425.709 275.13C425.523 275.13 425.345 275.201 425.21 275.328C425.075 275.456 424.994 275.63 424.983 275.815V275.818ZM369.948 257.935C370.132 257.98 370.326 257.951 370.489 257.855C370.652 257.759 370.771 257.603 370.821 257.421C370.871 257.238 370.848 257.043 370.757 256.878C370.666 256.712 370.514 256.588 370.333 256.533C368.276 255.932 366.093 255.911 364.025 256.471C361.957 257.032 360.084 258.153 358.613 259.71C357.978 260.393 359.003 261.423 359.643 260.738C360.932 259.361 362.578 258.371 364.398 257.876C366.218 257.381 368.139 257.401 369.948 257.935ZM410.348 290.865C410.23 290.772 410.085 290.72 409.935 290.718C398.153 290.52 386.373 290.915 374.593 290.718C374.496 290.718 374.4 290.739 374.311 290.777C374.222 290.815 374.141 290.871 374.074 290.941C374.007 291.011 373.954 291.093 373.919 291.184C373.884 291.274 373.868 291.371 373.87 291.468C373.87 291.591 373.903 291.711 373.965 291.818C377.803 298.068 383.965 304.483 391.775 304.79C394.788 304.959 397.796 304.389 400.539 303.131C403.282 301.873 405.675 299.964 407.513 297.57C408.85 295.766 409.903 293.768 410.635 291.645C410.696 291.503 410.7 291.343 410.647 291.198C410.593 291.053 410.486 290.934 410.348 290.865ZM423.958 261.367C424.52 262.1 425.783 261.368 425.208 260.635C423.912 258.948 422.129 257.7 420.099 257.061C418.07 256.422 415.894 256.424 413.865 257.065C412.98 257.355 413.365 258.76 414.25 258.465C415.971 257.904 417.823 257.881 419.557 258.4C421.292 258.918 422.827 259.954 423.958 261.367ZM369.413 276.088C369.548 277.578 369.333 279.08 368.785 280.473C368.353 281.137 367.691 281.618 366.925 281.825C366.16 282.031 365.345 281.947 364.638 281.59C362.42 280.77 361.918 278.182 361.918 276.09C361.907 275.905 361.826 275.731 361.691 275.603C361.556 275.476 361.377 275.405 361.191 275.405C361.006 275.405 360.827 275.476 360.692 275.603C360.557 275.731 360.476 275.905 360.465 276.09C360.387 277.144 360.523 278.203 360.863 279.203C361.204 280.204 361.743 281.125 362.448 281.913C362.982 282.454 363.636 282.864 364.357 283.109C365.078 283.353 365.846 283.426 366.6 283.321C367.355 283.217 368.074 282.937 368.701 282.506C369.328 282.074 369.846 281.502 370.213 280.835C370.748 279.312 370.971 277.696 370.868 276.085C370.868 275.892 370.791 275.707 370.655 275.571C370.518 275.434 370.333 275.358 370.14 275.358C369.947 275.358 369.762 275.434 369.626 275.571C369.489 275.707 369.413 275.892 369.413 276.085V276.088ZM107.688 244.32C102.588 244.918 97.4718 245.335 92.3402 245.57C91.4077 245.612 91.4027 247.07 92.3402 247.023C101.604 246.589 110.832 245.579 119.97 244C129.921 242.253 139.777 240.004 149.5 237.263C155.483 235.592 161.431 233.803 167.343 231.895L167.88 231.728C168.768 231.44 168.38 230.037 167.493 230.325H167.468C157.103 233.662 146.64 236.72 136.038 239.217C126.693 241.457 117.227 243.16 107.688 244.32Z" fill="#292827"/>
<path d="M198.153 273.455L197.528 273.885C197.448 274.352 197.393 274.822 197.363 275.295V275.725C206.504 269.364 215.131 262.295 223.165 254.583C231.998 246.122 240.136 236.964 247.5 227.198C246.98 227.373 246.46 227.543 245.945 227.735C245.6 227.863 245.265 228.008 244.925 228.14C238.865 236.028 232.293 243.508 225.25 250.533C216.869 258.912 207.806 266.58 198.153 273.455Z" fill="#292827"/>
<path d="M197.528 273.885C198.488 269.644 200.461 265.698 203.278 262.385C203.838 261.635 202.575 260.91 202.028 261.653C199.045 265.158 196.989 269.355 196.048 273.86C195.995 274.233 195.98 274.61 195.955 274.975C195.918 275.558 195.913 276.142 195.94 276.725C196.245 280.394 197.397 283.942 199.305 287.09C201.178 290.567 204.257 293.241 207.963 294.608C211.6 295.816 215.475 296.134 219.26 295.533C223.595 294.94 227.793 293.596 231.665 291.56C231.703 291.534 231.738 291.505 231.77 291.473V290.418C231.663 290.311 231.523 290.242 231.373 290.221C231.223 290.201 231.07 290.23 230.938 290.305C224.592 293.913 217.163 295.123 210 293.715C206.563 292.884 203.548 290.826 201.523 287.928C198.938 284.37 197.49 280.113 197.37 275.718V275.288C197.398 274.818 197.451 274.349 197.528 273.885Z" fill="#292827"/>
<path d="M191.58 279.442C186.868 282.232 182.035 284.804 177.08 287.157C172.287 289.43 167.384 291.464 162.39 293.252C146.896 298.822 130.548 301.645 114.083 301.592C108.065 301.592 102.058 301.195 96.0826 300.592C91.6401 300.15 87.2101 299.55 82.7576 299.215C81.8301 299.145 81.8251 297.69 82.7576 297.76C83.2151 297.795 83.6751 297.832 84.1326 297.875C88.7576 298.287 93.3651 298.895 97.9876 299.322C104.089 299.91 110.216 300.175 116.345 300.117C123.92 300.024 131.475 299.315 138.935 297.997C147.862 296.395 156.618 293.955 165.088 290.71C175.123 286.832 184.77 282.018 193.903 276.33L194.043 276.245C192.111 273.158 190.221 270.044 188.373 266.902C187.873 266.06 187.388 265.212 186.893 264.367C183.86 259.175 180.86 253.96 177.708 248.837C174.245 243.207 170.515 237.702 167.363 231.887C161.451 233.795 155.501 235.585 149.518 237.255C139.788 240 129.927 242.251 119.97 244C110.832 245.581 101.604 246.592 92.3401 247.027C91.4026 247.072 91.4076 245.617 92.3401 245.575C97.4685 245.34 102.584 244.923 107.688 244.325C117.23 243.166 126.697 241.464 136.045 239.225C146.648 236.725 157.11 233.67 167.475 230.332C172.56 228.21 177.484 225.72 182.208 222.882C182.74 222.56 183.255 222.217 183.778 221.882C184.198 221.615 184.623 221.355 185.028 221.082C183.703 216.907 181.938 212.884 179.76 209.082C176.537 203.541 172.595 198.45 168.038 193.942C163.543 189.548 158.299 185.992 152.553 183.442C152.248 183.833 151.922 184.207 151.578 184.562C149.867 186.341 147.726 187.647 145.363 188.355C134.613 191.565 122.765 194.005 111.655 190.997C106.627 189.525 101.945 187.06 97.8851 183.747C95.7434 182.204 93.8056 180.395 92.1176 178.365C90.7365 176.497 89.8576 174.305 89.5651 172C89.5426 171.847 89.5026 171.7 89.4876 171.547C89.4501 171.22 89.4551 170.885 89.4426 170.547C89.3451 170.547 89.2451 170.547 89.1451 170.567C77.9564 171.758 67.2031 175.557 57.7501 181.66C48.21 187.877 39.8648 195.758 33.1126 204.927C29.627 209.58 26.4972 214.489 23.7501 219.612C21.6926 223.437 19.9326 227.377 18.2151 231.362C17.7526 232.44 17.3026 233.517 16.8976 234.612C14.855 240.238 13.5451 246.103 13.0001 252.062C12.6258 256.085 12.6845 260.137 13.1751 264.147C13.7197 268.601 14.8905 272.956 16.6526 277.082C18.6597 281.696 21.4227 285.943 24.8276 289.647C28.9286 294.044 33.7003 297.762 38.9651 300.665C45.7772 304.399 53.035 307.255 60.5651 309.165C70.5279 311.71 80.7044 313.33 90.9651 314.002C103.905 315.183 116.933 314.982 129.83 313.405C140.259 312.142 150.371 308.988 159.67 304.1C166.925 300.168 173.241 294.709 178.183 288.1C178.425 287.723 178.687 287.358 178.968 287.007C179.58 286.517 180.264 286.124 180.995 285.84C182.57 284.993 184.131 284.12 185.678 283.22C188.943 281.32 192.141 279.313 195.273 277.2L195.3 277.175C194.065 277.947 192.825 278.702 191.58 279.442Z" fill="#9CF0F0"/>
<path d="M266.518 193.333C271.188 183.674 274.613 173.462 276.71 162.94C277.951 157.804 278.329 152.498 277.83 147.238C276.964 141.358 274.181 135.928 269.913 131.793C269.413 131.328 268.6 130.638 267.945 131.235C267.589 131.659 267.376 132.183 267.335 132.735C267.211 134.414 267.259 136.101 267.478 137.77L268.125 149.703C268.175 150.643 266.735 150.63 266.67 149.703C266.427 146.191 265.675 142.733 264.438 139.438C263.862 137.909 263.18 136.422 262.398 134.988C261.784 133.737 260.985 132.587 260.028 131.575C259.188 130.607 258.008 130.001 256.733 129.883C256.12 129.956 255.56 130.263 255.169 130.739C254.778 131.216 254.587 131.825 254.635 132.44C254.665 133.838 254.823 135.231 255.108 136.6C255.329 138.225 255.434 139.863 255.42 141.503C255.387 144.787 254.891 148.05 253.945 151.195C253.894 151.36 253.786 151.502 253.641 151.596C253.495 151.689 253.321 151.727 253.15 151.704C252.978 151.681 252.821 151.598 252.705 151.469C252.589 151.341 252.523 151.175 252.518 151.003C252.42 147.35 251.982 143.714 251.21 140.143C250.8 138.409 250.185 136.731 249.378 135.143C248.695 133.828 247.628 131.643 245.973 131.438C243.585 131.133 243.143 134.998 243.125 136.615C243.143 139.244 242.97 141.871 242.61 144.475C241.958 150.053 239.842 155.359 236.478 159.855C233.028 164.042 228.275 166.951 222.978 168.118C221.174 168.521 219.324 168.681 217.478 168.595C219.275 171.21 220.908 173.933 222.368 176.75C222.843 177.611 223.26 178.502 223.618 179.418C223.898 180.25 222.978 181.123 222.535 181.788C221.437 183.438 220.328 185.079 219.21 186.713C212.732 196.69 205.101 205.869 196.475 214.06C188.239 221.314 178.863 227.161 168.725 231.365C170.428 234.473 172.32 237.473 174.2 240.475C177.93 246.395 181.563 252.375 185.098 258.413C188.428 264.13 191.753 269.85 195.26 275.463L195.97 274.963C195.995 274.59 196.01 274.213 196.063 273.848C197.004 269.343 199.06 265.145 202.043 261.64C202.595 260.89 203.858 261.623 203.293 262.373C200.476 265.686 198.503 269.631 197.543 273.873L198.168 273.443C207.815 266.57 216.874 258.907 225.25 250.533C232.298 243.509 238.875 236.028 244.94 228.14C237.758 231.144 230.918 234.911 224.54 239.375C223.758 239.895 223.04 238.625 223.808 238.125C228.048 235.25 232.439 232.601 236.96 230.19C240.048 228.578 243.247 227.19 246.533 226.035C247.283 225.055 248.033 224.093 248.755 223.1C255.583 213.747 261.529 203.782 266.518 193.333ZM266.963 166.288C267.651 165.251 268.092 164.071 268.253 162.838C268.368 161.92 269.823 161.91 269.708 162.838C269.537 164.329 269.023 165.762 268.208 167.023C267.708 167.805 266.44 167.075 266.958 166.288H266.963ZM251.008 167.015C251.59 165.842 251.823 164.527 251.678 163.225C251.588 162.293 253.043 162.303 253.133 163.225C253.277 164.785 252.976 166.355 252.263 167.75C251.845 168.588 250.593 167.85 251 167.015H251.008ZM221.973 241.25C221.004 244.069 219.861 246.824 218.55 249.5C216.819 253.639 214.074 257.276 210.568 260.075C209.227 261.057 207.596 261.563 205.935 261.51C204.176 261.316 202.534 260.532 201.278 259.285C200.436 258.624 199.776 257.76 199.36 256.775C198.944 255.789 198.785 254.714 198.898 253.65C199.34 251.939 200.336 250.423 201.73 249.338C203.526 247.844 205.504 246.583 207.618 245.588C211.973 243.516 216.472 241.761 221.08 240.338C221.204 240.305 221.334 240.306 221.457 240.34C221.58 240.374 221.693 240.439 221.783 240.529C221.873 240.62 221.938 240.732 221.971 240.856C222.005 240.979 222.005 241.109 221.973 241.233V241.25Z" fill="#FFE497"/>
<path d="M273.765 133.923C272.907 132.798 271.963 131.742 270.94 130.765C269.78 129.695 268.053 128.928 266.805 130.33C265.915 131.681 265.58 133.323 265.87 134.915L266.143 139.943C266.085 139.783 266.043 139.615 265.985 139.443C265.403 137.833 264.712 136.264 263.918 134.748C263.235 133.318 262.358 131.99 261.31 130.803C259.578 128.98 256.433 127.26 254.295 129.49C252.158 131.72 253.598 135.533 253.835 138.188C254.05 140.727 253.972 143.283 253.603 145.805C253.411 140.994 251.939 136.322 249.338 132.27C248.982 131.679 248.504 131.17 247.936 130.779C247.367 130.387 246.722 130.122 246.043 130C245.521 129.956 244.997 130.039 244.515 130.244C244.033 130.448 243.608 130.767 243.278 131.173C241.965 133.171 241.402 135.569 241.688 137.943C241.754 143.813 240.471 149.621 237.938 154.918C235.307 160.104 230.772 164.072 225.283 165.993C223.207 166.716 221.032 167.11 218.835 167.16C218.428 167.16 218.02 167.135 217.61 167.118C217.36 167.118 217.085 167.118 216.823 167.09H216.8L216.51 167.058H216.43C216.363 167.058 216.295 167.038 216.23 167.025C216.015 166.989 215.794 167.039 215.615 167.165C215.466 167.254 215.359 167.399 215.317 167.567C215.275 167.736 215.301 167.914 215.39 168.063L215.408 168.093C217.955 171.801 220.211 175.701 222.158 179.758C216.428 188.772 210.038 197.35 203.04 205.42C197.726 211.388 191.678 216.66 185.04 221.11C184.628 221.383 184.203 221.643 183.79 221.91C183.268 222.243 182.753 222.585 182.22 222.91C177.497 225.748 172.573 228.238 167.488 230.36H167.515C168.408 230.073 168.788 231.475 167.9 231.763L167.363 231.93C170.515 237.745 174.245 243.25 177.708 248.88C180.86 254.003 183.86 259.215 186.895 264.41C187.395 265.255 187.878 266.1 188.373 266.945C190.221 270.085 192.111 273.199 194.043 276.288L194.675 275.903C195.473 275.403 196.2 276.665 195.408 277.153C195.595 277.028 195.773 276.89 195.958 276.763C195.93 276.179 195.936 275.595 195.973 275.013C195.723 275.175 195.5 275.343 195.263 275.513C191.763 269.903 188.43 264.183 185.1 258.465C181.575 252.418 177.923 246.465 174.205 240.528C172.323 237.528 170.43 234.528 168.728 231.418C178.866 227.214 188.242 221.367 196.478 214.113C205.104 205.923 212.734 196.746 219.213 186.77C220.333 185.138 221.441 183.497 222.538 181.845C222.98 181.178 223.9 180.308 223.62 179.475C223.263 178.559 222.845 177.668 222.37 176.808C220.919 173.973 219.292 171.231 217.5 168.598C219.346 168.684 221.196 168.523 223 168.12C228.297 166.953 233.051 164.044 236.5 159.858C239.865 155.361 241.981 150.055 242.633 144.478C242.993 141.873 243.165 139.247 243.148 136.618C243.165 135 243.608 131.135 245.995 131.44C247.658 131.653 248.718 133.83 249.4 135.145C250.207 136.733 250.822 138.412 251.233 140.145C252.005 143.717 252.443 147.352 252.54 151.005C252.545 151.178 252.612 151.343 252.727 151.472C252.843 151.6 253.001 151.684 253.172 151.707C253.344 151.73 253.518 151.691 253.663 151.598C253.809 151.505 253.917 151.363 253.968 151.198C254.913 148.052 255.41 144.789 255.445 141.505C255.458 139.865 255.352 138.227 255.13 136.603C254.845 135.233 254.687 133.841 254.658 132.443C254.61 131.828 254.802 131.219 255.192 130.742C255.583 130.266 256.143 129.959 256.755 129.885C258.031 130.002 259.212 130.609 260.05 131.578C261.001 132.593 261.792 133.747 262.398 135C263.179 136.434 263.861 137.92 264.438 139.448C265.675 142.744 266.427 146.203 266.67 149.715C266.735 150.643 268.17 150.655 268.125 149.715L267.48 137.783C267.261 136.114 267.212 134.426 267.335 132.748C267.376 132.196 267.589 131.671 267.945 131.248C268.6 130.65 269.408 131.34 269.913 131.805C274.182 135.94 276.966 141.37 277.83 147.25C278.329 152.51 277.95 157.817 276.71 162.953C274.613 173.474 271.188 183.687 266.518 193.345C261.526 203.789 255.578 213.748 248.75 223.095C248.03 224.095 247.265 225.05 246.53 226.03C247.337 225.748 248.151 225.48 248.973 225.225C255.61 216.287 261.456 206.787 266.443 196.833C271.415 187.034 275.158 176.659 277.588 165.943C277.848 164.751 278.083 163.553 278.295 162.35C278.533 161.02 278.748 159.685 278.93 158.35C279.18 156.43 279.445 154.483 279.535 152.538C279.568 151.845 279.583 151.153 279.565 150.46C279.409 144.477 277.381 138.693 273.765 133.923Z" fill="#292827"/>
<path d="M194.662 275.868L194.03 276.253L193.89 276.338C184.758 282.025 175.11 286.84 165.075 290.718C156.606 293.961 147.849 296.399 138.923 298C131.462 299.318 123.908 300.027 116.332 300.12C110.204 300.178 104.076 299.912 97.975 299.325C93.3525 298.898 88.745 298.29 84.12 297.878C83.662 297.835 83.2036 297.797 82.745 297.763C81.8125 297.693 81.8175 299.148 82.745 299.217C87.1975 299.553 91.6275 300.153 96.07 300.595C102.057 301.19 108.07 301.578 114.07 301.595C130.54 301.647 146.892 298.823 162.39 293.25C167.39 291.468 172.285 289.423 177.08 287.155C182.03 284.813 186.863 282.242 191.58 279.44C192.825 278.702 194.062 277.952 195.292 277.19L195.395 277.125C196.188 276.63 195.457 275.373 194.662 275.868ZM252.263 167.75C252.975 166.355 253.277 164.785 253.133 163.225C253.043 162.303 251.588 162.293 251.678 163.225C251.823 164.526 251.59 165.842 251.008 167.015C250.593 167.85 251.845 168.588 252.263 167.75ZM268.217 167.023C269.033 165.762 269.546 164.329 269.718 162.838C269.833 161.91 268.378 161.92 268.263 162.838C268.102 164.071 267.661 165.251 266.973 166.288C266.45 167.075 267.708 167.805 268.217 167.023ZM280.43 322.84C281.357 322.94 281.353 321.485 280.43 321.385C279.25 321.253 278.109 320.889 277.07 320.314C276.032 319.739 275.118 318.965 274.38 318.035L274.275 317.91C273.715 317.16 272.453 317.895 273.025 318.643C273.123 318.77 273.228 318.893 273.328 319.003C275.094 321.171 277.648 322.55 280.43 322.84ZM435.408 448.378C435.418 448.563 435.5 448.737 435.635 448.864C435.77 448.991 435.948 449.062 436.134 449.062C436.319 449.062 436.498 448.991 436.633 448.864C436.768 448.737 436.849 448.563 436.86 448.378L437.36 411.878L437.505 401.425C437.494 401.24 437.413 401.066 437.278 400.938C437.143 400.811 436.964 400.74 436.779 400.74C436.593 400.74 436.415 400.811 436.28 400.938C436.145 401.066 436.063 401.24 436.052 401.425L435.553 437.925L435.408 448.378ZM62.405 103.178C64.8601 92.8744 69.1621 83.1014 75.1025 74.3325C76.798 71.8325 78.6239 69.4233 80.5725 67.115C81.1725 66.4025 80.15 65.365 79.545 66.0875C70.5664 76.6953 64.2131 89.2691 61 102.79C60.7875 103.7 62.1875 104.088 62.405 103.178ZM45.3525 112.48C47.3812 95.2301 54.0562 78.8549 64.665 65.1025C67.6193 61.2746 70.8648 57.6806 74.3725 54.3525C75.0525 53.705 74.0225 52.68 73.345 53.3225C66.99 59.3707 61.4909 66.2585 57 73.795C52.5063 81.329 49.0446 89.4322 46.7075 97.8875C45.3948 102.672 44.4553 107.55 43.8975 112.48C43.7925 113.408 45.25 113.4 45.3525 112.48Z" fill="#292827"/>
</svg>
