<svg width="33" height="33" viewBox="0 0 33 33" fill="none" xmlns="http://www.w3.org/2000/svg">
<path fill-rule="evenodd" clip-rule="evenodd" d="M7.49055 5.44595L8.71798 5.20047C9.57083 5.0299 10.4361 5.43005 10.8585 6.19034L12.9524 9.95936C13.3861 10.7399 13.2497 11.7134 12.6183 12.3449L11.2086 13.7545C10.5598 14.4041 10.4366 15.4121 10.9105 16.1985C11.7056 17.5205 12.6312 18.7096 13.6873 19.7656C14.7434 20.8217 15.9316 21.7465 17.252 22.54C18.0385 23.0117 19.0451 22.888 19.6939 22.2398L21.1036 20.8301C21.735 20.1987 22.7085 20.0624 23.4891 20.496L27.2581 22.5899C28.0184 23.0123 28.4186 23.8776 28.248 24.7305L28.0025 25.9579C27.8852 26.5441 27.5118 27.0471 26.9837 27.3274C22.03 29.968 16.6543 28.3894 10.8566 22.5918C5.05904 16.7942 3.4805 11.4185 6.12105 6.46472C6.40136 5.93668 6.90435 5.56329 7.49055 5.44595Z" stroke="#03061A" stroke-width="2" stroke-linecap="round" stroke-linejoin="round"/>
</svg>
